<svg xmlns="http://www.w3.org/2000/svg" xmlns:xlink="http://www.w3.org/1999/xlink" viewBox="0 0 500 495.72"><defs><style>.a,.p{fill:#231f20;}.b{fill:none;}.c{clip-path:url(#a);}.d{clip-path:url(#b);}.e{clip-path:url(#c);}.f{clip-path:url(#d);}.g{clip-path:url(#e);}.h{clip-path:url(#f);}.i{clip-path:url(#g);}.j{clip-path:url(#h);}.k{clip-path:url(#i);}.l{clip-path:url(#j);}.m{clip-path:url(#k);}.n{clip-path:url(#l);}.o{clip-path:url(#m);}.p{font-size:75px;font-family:MyriadPro-Regular, Myriad Pro;}</style><clipPath id="a" transform="translate(0 80.73)"><path class="a" d="M65.26,136.48c58.81-163.67,302,137.74,391.26,20.56C397.83,319.92,151.08,19,65.26,136.48Z"/></clipPath><clipPath id="b" transform="translate(0 80.73)"><path class="a" d="M43.49,177.37c58.81-163.66,302,137.75,391.25,20.56C376.08,360.81,129.34,59.93,43.49,177.37Z"/></clipPath><clipPath id="c" transform="translate(0 80.73)"><path class="a" d="M21.75,218.27C80.55,54.61,323.71,356,413,238.83,354.34,401.71,107.59,100.83,21.75,218.27Z"/></clipPath><clipPath id="d" transform="translate(0 80.73)"><path class="a" d="M0,259.16C58.81,95.5,302,396.91,391.26,279.73,332.59,442.61,85.84,141.73,0,259.16Z"/></clipPath><clipPath id="e" transform="translate(0 80.73)"><path class="a" d="M108.73,54.74C167.54-109,410.7,192.44,500,75.25,441.33,238.12,194.58-62.75,108.73,54.74Z"/></clipPath><clipPath id="f" transform="translate(0 80.73)"><path class="a" d="M87,95.58c58.8-163.67,302,137.74,391.24,20.57C419.58,279,172.83-21.86,87,95.58Z"/></clipPath><clipPath id="g" transform="translate(0 80.73)"><ellipse class="b" cx="250.53" cy="167.4" rx="79.91" ry="80.39" transform="translate(81.06 416.54) rotate(-89.53)"/></clipPath><clipPath id="h" transform="translate(0 80.73)"><path class="a" d="M283.68-15.22C446,44.26,144.23,282.12,260,371.33,98.53,312,399.76,70.58,283.68-15.22Z"/></clipPath><clipPath id="i" transform="translate(0 80.73)"><path class="a" d="M243.2-37.07C405.46,22.4,103.73,260.26,219.54,349.47,58.05,290.16,359.28,48.75,243.2-37.07Z"/></clipPath><clipPath id="j" transform="translate(0 80.73)"><path class="a" d="M202.7-58.9C365,.57,63.24,238.43,179.05,327.65,17.55,268.32,318.78,26.92,202.7-58.9Z"/></clipPath><clipPath id="k" transform="translate(0 80.73)"><path class="a" d="M162.21-80.73C324.49-21.26,22.75,216.6,138.55,305.82-22.94,246.49,278.29,5.08,162.21-80.73Z"/></clipPath><clipPath id="l" transform="translate(0 80.73)"><path class="a" d="M364.61,28.43C526.93,87.9,225.2,325.76,341,415,179.52,355.65,480.75,114.24,364.61,28.43Z"/></clipPath><clipPath id="m" transform="translate(0 80.73)"><path class="a" d="M324.17,6.6c162.28,59.47-139.45,297.33-23.65,386.54C139.06,333.82,440.25,92.41,324.17,6.6Z"/></clipPath></defs><path class="a" d="M65.26,136.48c58.81-163.67,302,137.74,391.26,20.56C397.83,319.92,151.08,19,65.26,136.48Z" transform="translate(0 80.73)"/><path class="a" d="M65.26,136.48c58.81-163.67,302,137.74,391.26,20.56C397.83,319.92,151.08,19,65.26,136.48Z" transform="translate(0 80.73)"/><g class="c"><path class="a" d="M65.26,136.48C106.93.53,414.9,293,456.52,157" transform="translate(0 80.73)"/></g><path class="a" d="M43.49,177.37c58.81-163.66,302,137.75,391.25,20.56C376.08,360.81,129.34,59.93,43.49,177.37Z" transform="translate(0 80.73)"/><path class="a" d="M43.49,177.37c58.81-163.66,302,137.75,391.25,20.56C376.08,360.81,129.34,59.93,43.49,177.37Z" transform="translate(0 80.73)"/><g class="d"><path class="a" d="M43.49,177.37C85.16,41.42,393.13,333.9,434.75,197.94" transform="translate(0 80.73)"/></g><path class="a" d="M21.75,218.27C80.55,54.61,323.71,356,413,238.83,354.34,401.71,107.59,100.83,21.75,218.27Z" transform="translate(0 80.73)"/><path class="a" d="M21.75,218.27C80.55,54.61,323.71,356,413,238.83,354.34,401.71,107.59,100.83,21.75,218.27Z" transform="translate(0 80.73)"/><g class="e"><path class="a" d="M21.75,218.27C63.41,82.32,371.39,374.8,413,238.83" transform="translate(0 80.73)"/></g><path class="a" d="M0,259.16C58.81,95.5,302,396.91,391.26,279.73,332.59,442.61,85.84,141.73,0,259.16Z" transform="translate(0 80.73)"/><path class="a" d="M0,259.16C58.81,95.5,302,396.91,391.26,279.73,332.59,442.61,85.84,141.73,0,259.16Z" transform="translate(0 80.73)"/><g class="f"><path class="a" d="M0,259.16C41.67,123.22,349.64,415.7,391.26,279.73" transform="translate(0 80.73)"/></g><path class="a" d="M108.73,54.74C167.54-109,410.7,192.44,500,75.25,441.33,238.12,194.58-62.75,108.73,54.74Z" transform="translate(0 80.73)"/><path class="a" d="M108.73,54.74C167.54-109,410.7,192.44,500,75.25,441.33,238.12,194.58-62.75,108.73,54.74Z" transform="translate(0 80.73)"/><g class="g"><path class="a" d="M108.73,54.74C150.4-81.21,458.37,211.21,500,75.26" transform="translate(0 80.73)"/></g><path class="a" d="M87,95.58c58.8-163.67,302,137.74,391.24,20.57C419.58,279,172.83-21.86,87,95.58Z" transform="translate(0 80.73)"/><path class="a" d="M87,95.58c58.8-163.67,302,137.74,391.24,20.57C419.58,279,172.83-21.86,87,95.58Z" transform="translate(0 80.73)"/><g class="h"><path class="a" d="M87,95.58c41.66-135.94,349.64,156.53,391.25,20.57" transform="translate(0 80.73)"/></g><g class="i"><path class="a" d="M283.68-15.22C446,44.26,144.23,282.12,260,371.33,98.53,312,399.76,70.58,283.68-15.22Z" transform="translate(0 80.73)"/><path class="a" d="M283.68-15.22C446,44.26,144.23,282.12,260,371.33,98.53,312,399.76,70.58,283.68-15.22Z" transform="translate(0 80.73)"/><g class="j"><path class="a" d="M283.68-15.22C418.53,27.09,125.15,329.08,260,371.33" transform="translate(0 80.73)"/></g><path class="a" d="M243.2-37.07C405.46,22.4,103.73,260.26,219.54,349.47,58.05,290.16,359.28,48.75,243.2-37.07Z" transform="translate(0 80.73)"/><path class="a" d="M243.2-37.07C405.46,22.4,103.73,260.26,219.54,349.47,58.05,290.16,359.28,48.75,243.2-37.07Z" transform="translate(0 80.73)"/><g class="k"><path class="a" d="M243.2-37.07C378.05,5.24,84.67,307.23,219.53,349.48" transform="translate(0 80.73)"/></g><path class="a" d="M202.7-58.9C365,.57,63.24,238.43,179.05,327.65,17.55,268.32,318.78,26.92,202.7-58.9Z" transform="translate(0 80.73)"/><path class="a" d="M202.7-58.9C365,.57,63.24,238.43,179.05,327.65,17.55,268.32,318.78,26.92,202.7-58.9Z" transform="translate(0 80.73)"/><g class="l"><path class="a" d="M202.7-58.9C337.55-16.6,44.17,285.4,179.05,327.65" transform="translate(0 80.73)"/></g><path class="a" d="M162.21-80.73C324.49-21.26,22.75,216.6,138.55,305.82-22.94,246.49,278.29,5.08,162.21-80.73Z" transform="translate(0 80.73)"/><path class="a" d="M162.21-80.73C324.49-21.26,22.75,216.6,138.55,305.82-22.94,246.49,278.29,5.08,162.21-80.73Z" transform="translate(0 80.73)"/><g class="m"><path class="a" d="M162.21-80.73C297.06-38.43,3.68,263.56,138.55,305.82" transform="translate(0 80.73)"/></g><path class="a" d="M364.61,28.43C526.93,87.9,225.2,325.76,341,415,179.52,355.65,480.75,114.24,364.61,28.43Z" transform="translate(0 80.73)"/><path class="a" d="M364.61,28.43C526.93,87.9,225.2,325.76,341,415,179.52,355.65,480.75,114.24,364.61,28.43Z" transform="translate(0 80.73)"/><g class="n"><path class="a" d="M364.61,28.43C499.46,70.73,206.14,372.72,341,415" transform="translate(0 80.73)"/></g><path class="a" d="M324.17,6.6c162.28,59.47-139.45,297.33-23.65,386.54C139.06,333.82,440.25,92.41,324.17,6.6Z" transform="translate(0 80.73)"/><path class="a" d="M324.17,6.6c162.28,59.47-139.45,297.33-23.65,386.54C139.06,333.82,440.25,92.41,324.17,6.6Z" transform="translate(0 80.73)"/><g class="o"><path class="a" d="M324.17,6.6C459,48.9,165.65,350.89,300.52,393.15" transform="translate(0 80.73)"/></g></g><text class="p" transform="translate(406.44 155.86)">1</text></svg>